# xmcd
#
# Track frame offsets:
#	150
#	12232
#	25967
#	38100
#	50675
#	63172
#	75757
#	90905
#	101297
#	129140
#	143070
#	155155
#	164740
#	177457
#	190565
#	200720
#	226735
#
# Disc length: 3182 seconds
#
# Revision: 6
# Processed by: cddbd v1.5.2PL0 Copyright (c) Steve Scherf et al.
# Submitted via: audiograbber 1.83.01
#
DISCID=ce0c6c11
DTITLE=Various Artist - Rhythm Revue  [CD3)
DYEAR=1996
DGENRE=Oldies
TTITLE0=Cliff Nobles - Love Is All Right (The Horse)
TTITLE1=Billy Stewart - I Do Love You
TTITLE2=Linda Jones - Hypnotized
TTITLE3=Ambassadors - I Really Love You
TTITLE4=Gene Chandler - God Bless Our Love
TTITLE5=Players - He'll Be Back
TTITLE6=Lovelites - How Can I Tell My Mom And Dad
TTITLE7=Aretha Franklin - Think
TTITLE8=Laura Lee - Since I Fell For You
TTITLE9=Eddie Floyd - Knock On Wood
TTITLE10=Mighty Sam - Sweet Dreams
TTITLE11=Fascinations - Girls Are Out To Get You
TTITLE12=Barbara Mason - Oh How It Hurts
TTITLE13=Fontella Bass - Rescue Me
TTITLE14=United Four - Go On
TTITLE15=Gene Chandler - Rainbow '65 - Part I and II
TTITLE16=Big Maybelle - Candy
EXTD=
EXTT0=
EXTT1=
EXTT2=
EXTT3=
EXTT4=
EXTT5=
EXTT6=
EXTT7=
EXTT8=
EXTT9=
EXTT10=
EXTT11=
EXTT12=
EXTT13=
EXTT14=
EXTT15=
EXTT16=
PLAYORDER=
